<svg width="48" height="48" viewBox="0 0 48 48" fill="none" xmlns="http://www.w3.org/2000/svg">
<path d="M7.05691 6.33386C6.86596 6.33388 6.68284 6.40974 6.54782 6.54477C6.4128 6.67979 6.33693 6.86291 6.33691 7.05386V40.9398C6.33693 41.1307 6.4128 41.3139 6.54782 41.4489C6.68284 41.5839 6.86596 41.6598 7.05691 41.6598H40.9428C41.1338 41.6598 41.3169 41.5839 41.4519 41.4489C41.587 41.3139 41.6628 41.1307 41.6628 40.9398V7.05386C41.6628 6.86291 41.587 6.67979 41.4519 6.54477C41.3169 6.40974 41.1338 6.33388 40.9428 6.33386H7.05691ZM7.77691 7.77386H40.2228V40.2198H7.77691V7.77386Z" fill="white"/>
<path d="M23.9891 9.38632C23.7983 9.3893 23.6165 9.46789 23.4836 9.60482C23.3507 9.74175 23.2776 9.92584 23.2803 10.1166V13.8263C23.279 13.9217 23.2966 14.0165 23.3322 14.105C23.3678 14.1935 23.4206 14.2741 23.4876 14.3421C23.5546 14.41 23.6344 14.464 23.7224 14.5008C23.8105 14.5376 23.9049 14.5566 24.0004 14.5566C24.0958 14.5566 24.1902 14.5376 24.2783 14.5008C24.3663 14.464 24.4461 14.41 24.5131 14.3421C24.5801 14.2741 24.6329 14.1935 24.6685 14.105C24.7041 14.0165 24.7217 13.9217 24.7204 13.8263V10.1166C24.7217 10.0203 24.7038 9.9246 24.6675 9.83531C24.6312 9.74602 24.5774 9.66491 24.5092 9.59681C24.441 9.5287 24.3598 9.47498 24.2705 9.43882C24.1812 9.40267 24.0855 9.38481 23.9891 9.38632V9.38632Z" fill="white"/>
<path d="M23.9891 16.1064C23.7983 16.1094 23.6165 16.188 23.4836 16.3249C23.3507 16.4618 23.2776 16.6459 23.2803 16.8367V20.5464C23.279 20.6418 23.2966 20.7365 23.3322 20.8251C23.3678 20.9136 23.4206 20.9942 23.4876 21.0621C23.5546 21.1301 23.6344 21.184 23.7224 21.2209C23.8105 21.2577 23.9049 21.2767 24.0004 21.2767C24.0958 21.2767 24.1902 21.2577 24.2783 21.2209C24.3663 21.184 24.4461 21.1301 24.5131 21.0621C24.5801 20.9942 24.6329 20.9136 24.6685 20.8251C24.7041 20.7365 24.7217 20.6418 24.7204 20.5464V16.8367C24.7217 16.7404 24.7038 16.6447 24.6675 16.5554C24.6312 16.4661 24.5774 16.385 24.5092 16.3169C24.441 16.2488 24.3598 16.1951 24.2705 16.1589C24.1812 16.1228 24.0855 16.1049 23.9891 16.1064V16.1064Z" fill="white"/>
<path d="M23.9891 26.6663C23.7983 26.6693 23.6165 26.7479 23.4836 26.8848C23.3507 27.0218 23.2776 27.2059 23.2803 27.3967V31.1063C23.279 31.2018 23.2966 31.2965 23.3322 31.385C23.3678 31.4736 23.4206 31.5541 23.4876 31.6221C23.5546 31.69 23.6344 31.744 23.7224 31.7808C23.8105 31.8176 23.9049 31.8366 24.0004 31.8366C24.0958 31.8366 24.1902 31.8176 24.2783 31.7808C24.3663 31.744 24.4461 31.69 24.5131 31.6221C24.5801 31.5541 24.6329 31.4736 24.6685 31.385C24.7041 31.2965 24.7217 31.2018 24.7204 31.1063V27.3967C24.7217 27.3003 24.7038 27.2046 24.6675 27.1153C24.6312 27.026 24.5774 26.9449 24.5092 26.8768C24.441 26.8087 24.3598 26.755 24.2705 26.7189C24.1812 26.6827 24.0855 26.6648 23.9891 26.6663V26.6663Z" fill="white"/>
<path d="M23.9891 33.3863C23.7983 33.3893 23.6165 33.4679 23.4836 33.6048C23.3507 33.7418 23.2776 33.9258 23.2803 34.1166V37.8263C23.279 37.9217 23.2966 38.0165 23.3322 38.105C23.3678 38.1935 23.4206 38.2741 23.4876 38.3421C23.5546 38.41 23.6344 38.464 23.7224 38.5008C23.8105 38.5376 23.9049 38.5566 24.0004 38.5566C24.0958 38.5566 24.1902 38.5376 24.2783 38.5008C24.3663 38.464 24.4461 38.41 24.5131 38.3421C24.5801 38.2741 24.6329 38.1935 24.6685 38.105C24.7041 38.0165 24.7217 37.9217 24.7204 37.8263V34.1166C24.7217 34.0203 24.7038 33.9246 24.6675 33.8353C24.6312 33.746 24.5774 33.6649 24.5092 33.5968C24.441 33.5287 24.3598 33.475 24.2705 33.4388C24.1812 33.4027 24.0855 33.3848 23.9891 33.3863V33.3863Z" fill="white"/>
<path d="M38.5851 23.9607C38.5821 23.7699 38.5035 23.5881 38.3666 23.4552C38.2297 23.3223 38.0456 23.2492 37.8548 23.2519H34.1451C34.0497 23.2506 33.955 23.2682 33.8664 23.3038C33.7779 23.3393 33.6973 23.3922 33.6294 23.4592C33.5614 23.5261 33.5075 23.606 33.4707 23.694C33.4338 23.782 33.4149 23.8765 33.4149 23.9719C33.4149 24.0673 33.4338 24.1618 33.4707 24.2498C33.5075 24.3378 33.5614 24.4177 33.6294 24.4847C33.6973 24.5517 33.7779 24.6045 33.8664 24.6401C33.955 24.6756 34.0497 24.6933 34.1451 24.6919H37.8548C37.9512 24.6933 38.0468 24.6753 38.1361 24.639C38.2254 24.6028 38.3065 24.5489 38.3746 24.4808C38.4427 24.4126 38.4965 24.3314 38.5326 24.242C38.5688 24.1527 38.5866 24.057 38.5851 23.9607V23.9607Z" fill="white"/>
<path d="M31.8651 23.9607C31.8622 23.7699 31.7836 23.5881 31.6466 23.4552C31.5097 23.3223 31.3256 23.2492 31.1348 23.2519H27.4251C27.3297 23.2506 27.235 23.2682 27.1465 23.3038C27.0579 23.3393 26.9774 23.3922 26.9094 23.4592C26.8415 23.5261 26.7875 23.606 26.7507 23.694C26.7139 23.782 26.6949 23.8765 26.6949 23.9719C26.6949 24.0673 26.7139 24.1618 26.7507 24.2498C26.7875 24.3378 26.8415 24.4177 26.9094 24.4847C26.9774 24.5517 27.0579 24.6045 27.1465 24.6401C27.235 24.6756 27.3297 24.6933 27.4251 24.6919H31.1348C31.2312 24.6933 31.3269 24.6753 31.4162 24.639C31.5054 24.6028 31.5866 24.5489 31.6547 24.4808C31.7228 24.4126 31.7765 24.3314 31.8126 24.242C31.8488 24.1527 31.8667 24.057 31.8651 23.9607V23.9607Z" fill="white"/>
<path d="M21.3051 23.9607C21.3021 23.7699 21.2235 23.5881 21.0866 23.4552C20.9497 23.3223 20.7656 23.2492 20.5748 23.2519H16.8651C16.7697 23.2506 16.675 23.2682 16.5864 23.3038C16.4979 23.3393 16.4173 23.3922 16.3493 23.4592C16.2814 23.5261 16.2274 23.606 16.1906 23.694C16.1538 23.782 16.1348 23.8765 16.1348 23.9719C16.1348 24.0673 16.1538 24.1618 16.1906 24.2498C16.2274 24.3378 16.2814 24.4177 16.3493 24.4847C16.4173 24.5517 16.4979 24.6045 16.5864 24.6401C16.675 24.6756 16.7697 24.6933 16.8651 24.6919H20.5748C20.6711 24.6933 20.7668 24.6753 20.8561 24.639C20.9454 24.6028 21.0265 24.5489 21.0946 24.4808C21.1627 24.4126 21.2164 24.3314 21.2526 24.242C21.2887 24.1527 21.3066 24.057 21.3051 23.9607V23.9607Z" fill="white"/>
<path d="M14.5851 23.9607C14.5821 23.7699 14.5035 23.5881 14.3666 23.4552C14.2297 23.3223 14.0456 23.2492 13.8548 23.2519H10.1451C10.0497 23.2506 9.95498 23.2682 9.86645 23.3038C9.77791 23.3393 9.69733 23.3922 9.62938 23.4592C9.56143 23.5261 9.50748 23.606 9.47065 23.694C9.43383 23.782 9.41487 23.8765 9.41487 23.9719C9.41487 24.0673 9.43383 24.1618 9.47065 24.2498C9.50748 24.3378 9.56143 24.4177 9.62938 24.4847C9.69733 24.5517 9.77791 24.6045 9.86645 24.6401C9.95498 24.6756 10.0497 24.6933 10.1451 24.6919H13.8548C13.9512 24.6933 14.0468 24.6753 14.1361 24.639C14.2254 24.6028 14.3065 24.5489 14.3746 24.4808C14.4427 24.4126 14.4965 24.3314 14.5326 24.242C14.5688 24.1527 14.5866 24.057 14.5851 23.9607V23.9607Z" fill="white"/>
</svg>
