<?xml version="1.0" encoding="UTF-8" standalone="no"?>
<svg
   xmlns:dc="http://purl.org/dc/elements/1.1/"
   xmlns:cc="http://creativecommons.org/ns#"
   xmlns:rdf="http://www.w3.org/1999/02/22-rdf-syntax-ns#"
   xmlns:svg="http://www.w3.org/2000/svg"
   xmlns="http://www.w3.org/2000/svg"
   id="svg20"
   version="1.1"
   fill="none"
   viewBox="0 0 49 48"
   height="48"
   width="49">
  <metadata
     id="metadata26">
    <rdf:RDF>
      <cc:Work
         rdf:about="">
        <dc:format>image/svg+xml</dc:format>
        <dc:type
           rdf:resource="http://purl.org/dc/dcmitype/StillImage" />
        <dc:title></dc:title>
      </cc:Work>
    </rdf:RDF>
  </metadata>
  <defs
     id="defs24" />
  <g
     transform="matrix(1.0225989,0,0,1.0225989,6.6563049,5.7858086)"
     id="g846"
     style="fill:#1f567d;fill-opacity:1">
    <path
       style="fill:#1f567d;fill-opacity:1"
       d="M 18,0 C 11.46,0 4.5,1.89 4.5,5.37 v 25.26 c 0,3.48 7,5.37 13.5,5.37 6.5,0 13.5,-1.89 13.5,-5.37 V 5.37 C 31.5,1.89 24.54,0 18,0 Z m 0,1.29 c 7.2,0 12.21,2.16 12.21,4.08 0,1.21 -1.92,2.49 -5.1,3.28 a 24.55,24.55 0 0 1 -4.06,0.67 c -1,0.09 -2,0.14 -3.05,0.14 -1.05,0 -2.08,-0.05 -3,-0.14 A 24.55,24.55 0 0 1 10.94,8.65 C 7.76,7.86 5.84,6.58 5.84,5.37 5.79,3.45 10.8,1.29 18,1.29 Z m 12.21,9.59 v 2.39 c 0,1.19 -1.92,2.48 -5.1,3.28 a 24.11,24.11 0 0 1 -4,0.67 c -1,0.09 -2,0.14 -3.07,0.14 -1.07,0 -2.11,-0.05 -3.07,-0.14 a 24.11,24.11 0 0 1 -4,-0.67 C 7.79,15.75 5.87,14.46 5.87,13.27 V 7.77 A 9.49,9.49 0 0 0 8.65,9.32 19,19 0 0 0 10.89,9.99 32.56,32.56 0 0 0 18,10.75 32.56,32.56 0 0 0 25.11,10 19,19 0 0 0 27.35,9.33 9.49,9.49 0 0 0 30.21,7.78 Z m 0,7.88 v 2.39 c 0,1.94 -5,4.1 -12.21,4.1 -7.21,0 -12.21,-2.16 -12.21,-4.1 v -5.49 a 10,10 0 0 0 2.85,1.56 23.27,23.27 0 0 0 2.25,0.65 32.55,32.55 0 0 0 7.11,0.77 32.55,32.55 0 0 0 7.11,-0.77 23.27,23.27 0 0 0 2.25,-0.65 10,10 0 0 0 2.85,-1.56 z M 18,34.71 c -7.2,0 -12.21,-2.16 -12.21,-4.08 v -7.09 a 13.16,13.16 0 0 0 5.72,2.35 31.81,31.81 0 0 0 6.49,0.65 31.81,31.81 0 0 0 6.49,-0.65 13.16,13.16 0 0 0 5.72,-2.35 v 7.09 c 0,1.92 -5.01,4.08 -12.21,4.08 z"
       id="path835" />
  </g>
</svg>
