<svg width="49" height="48" viewBox="0 0 49 48" fill="none" xmlns="http://www.w3.org/2000/svg">
<path d="M24.5001 5.93262C22.0196 5.93262 19.9934 7.91747 19.9934 10.3473C19.9934 12.7771 22.0196 14.7629 24.5001 14.7629C26.9805 14.7629 29.0077 12.7771 29.0077 10.3473C29.0077 7.91747 26.9805 5.93262 24.5001 5.93262ZM24.5001 7.37262C26.1861 7.37262 27.5377 8.69571 27.5377 10.3473C27.5377 11.9989 26.1861 13.3229 24.5001 13.3229C22.8141 13.3229 21.4634 11.9989 21.4634 10.3473C21.4634 8.69571 22.8141 7.37262 24.5001 7.37262V7.37262Z" fill="white"/>
<path d="M10.0589 19.5496C7.57845 19.5496 5.55225 21.5344 5.55225 23.9643C5.55225 26.3941 7.57845 28.3799 10.0589 28.3799C12.5394 28.3799 14.5665 26.3941 14.5665 23.9643C14.5665 21.5344 12.5394 19.5496 10.0589 19.5496ZM10.0589 20.9896C11.7449 20.9896 13.0965 22.3127 13.0965 23.9643C13.0965 25.6159 11.7449 26.9399 10.0589 26.9399C8.3729 26.9399 7.02225 25.6159 7.02225 23.9643C7.02225 22.3127 8.3729 20.9896 10.0589 20.9896V20.9896Z" fill="white"/>
<path d="M38.8709 19.5493C36.3905 19.5493 34.3643 21.5342 34.3643 23.964C34.3643 26.3938 36.3905 28.3796 38.8709 28.3796C41.3514 28.3796 43.3785 26.3938 43.3785 23.964C43.3785 21.5342 41.3514 19.5493 38.8709 19.5493ZM38.8709 20.9893C40.5569 20.9893 41.9085 22.3124 41.9085 23.964C41.9085 25.6156 40.5569 26.9396 38.8709 26.9396C37.1849 26.9396 35.8343 25.6156 35.8343 23.964C35.8343 22.3124 37.1849 20.9893 38.8709 20.9893V20.9893Z" fill="white"/>
<path d="M10.0589 33.1664C7.57845 33.1664 5.55225 35.1512 5.55225 37.5811C5.55225 40.0109 7.57845 41.9967 10.0589 41.9967C12.5394 41.9967 14.5665 40.0109 14.5665 37.5811C14.5665 35.1512 12.5394 33.1664 10.0589 33.1664ZM10.0589 34.6064C11.7449 34.6064 13.0965 35.9295 13.0965 37.5811C13.0965 39.2327 11.7449 40.5567 10.0589 40.5567C8.3729 40.5567 7.02225 39.2327 7.02225 37.5811C7.02225 35.9295 8.3729 34.6064 10.0589 34.6064V34.6064Z" fill="white"/>
<path d="M24.5137 33.1664C22.0333 33.1664 20.0071 35.1512 20.0071 37.5811C20.0071 40.0109 22.0333 41.9967 24.5137 41.9967C26.9942 41.9967 29.0214 40.0109 29.0214 37.5811C29.0214 35.1512 26.9942 33.1664 24.5137 33.1664ZM24.5137 34.6064C26.1997 34.6064 27.5514 35.9295 27.5514 37.5811C27.5514 39.2327 26.1997 40.5567 24.5137 40.5567C22.8277 40.5567 21.4771 39.2327 21.4771 37.5811C21.4771 35.9295 22.8277 34.6064 24.5137 34.6064V34.6064Z" fill="white"/>
<path d="M20.9967 12.261L12.1748 20.8354L13.2103 21.8582L22.0322 13.2829L20.9967 12.261Z" fill="white"/>
<path d="M9.3811 27.8647V33.7119H10.8511V27.8647H9.3811Z" fill="white"/>
<path d="M13.5213 25.7863L12.4858 26.8091L21.3078 35.3834L22.3433 34.3606L13.5213 25.7863Z" fill="white"/>
<path d="M27.9515 12.1082L26.916 13.131L35.7379 21.7053L36.7734 20.6825L27.9515 12.1082Z" fill="white"/>
</svg>
