<?xml version="1.0" encoding="UTF-8" standalone="no"?>
<svg
   xmlns:dc="http://purl.org/dc/elements/1.1/"
   xmlns:cc="http://creativecommons.org/ns#"
   xmlns:rdf="http://www.w3.org/1999/02/22-rdf-syntax-ns#"
   xmlns:svg="http://www.w3.org/2000/svg"
   xmlns="http://www.w3.org/2000/svg"
   xmlns:sodipodi="http://sodipodi.sourceforge.net/DTD/sodipodi-0.dtd"
   xmlns:inkscape="http://www.inkscape.org/namespaces/inkscape"
   width="39"
   height="37"
   viewBox="0 0 39 37"
   fill="none"
   version="1.1"
   id="svg8"
   sodipodi:docname="i_demand_w.svg.svg"
   inkscape:version="0.92.3 (2405546, 2018-03-11)">
  <metadata
     id="metadata14">
    <rdf:RDF>
      <cc:Work
         rdf:about="">
        <dc:format>image/svg+xml</dc:format>
        <dc:type
           rdf:resource="http://purl.org/dc/dcmitype/StillImage" />
        <dc:title></dc:title>
      </cc:Work>
    </rdf:RDF>
  </metadata>
  <defs
     id="defs12" />
  <sodipodi:namedview
     pagecolor="#ffffff"
     bordercolor="#666666"
     borderopacity="1"
     objecttolerance="10"
     gridtolerance="10"
     guidetolerance="10"
     inkscape:pageopacity="0"
     inkscape:pageshadow="2"
     inkscape:window-width="1853"
     inkscape:window-height="1025"
     id="namedview10"
     showgrid="false"
     inkscape:zoom="6.3783784"
     inkscape:cx="19.5"
     inkscape:cy="18.5"
     inkscape:window-x="67"
     inkscape:window-y="27"
     inkscape:window-maximized="1"
     inkscape:current-layer="svg8" />
  <path
     d="m 28.157455,2.7107436 c -0.08037,2.182e-4 -0.159897,0.016436 -0.233967,0.047707 -0.07398,0.031271 -0.141085,0.076971 -0.19735,0.1344347 l -6.888987,7.0491252 c -0.08338,0.085228 -0.139657,0.1931365 -0.161912,0.3102195 -0.02226,0.117085 -0.0095,0.238132 0.0367,0.347994 0.04618,0.109853 0.123784,0.203632 0.223048,0.269582 0.09935,0.06595 0.215826,0.10116 0.334992,0.101194 h 2.862266 v 21.581098 c 0,0.160569 0.06383,0.314586 0.177365,0.428127 0.113539,0.11354 0.267556,0.177364 0.428209,0.177364 h 6.842546 c 0.160569,0 0.314587,-0.06383 0.428126,-0.177364 0.11354,-0.113541 0.177364,-0.267558 0.177364,-0.428127 V 10.971 h 2.862266 c 0.119167,-3.4e-5 0.235729,-0.03524 0.334994,-0.101194 0.09926,-0.06594 0.176859,-0.159729 0.223047,-0.269582 0.04619,-0.109862 0.05904,-0.23091 0.03671,-0.347994 -0.02226,-0.117084 -0.07852,-0.224989 -0.161827,-0.3102194 L 28.591969,2.8928852 C 28.535369,2.8350428 28.467764,2.789123 28.39319,2.7578391 28.318532,2.726556 28.238415,2.7105411 28.157461,2.7107432 Z m 0.0016,1.4713315 5.451681,5.5778013 H 31.58037 c -0.160652,8.4e-6 -0.314671,0.063816 -0.428211,0.1773814 -0.113541,0.1135562 -0.177364,0.2675752 -0.177364,0.4281762 v 21.581091 h -5.63153 V 10.365434 c 0,-0.160601 -0.06374,-0.31462 -0.177363,-0.4281762 -0.113539,-0.1135657 -0.267558,-0.177373 -0.428127,-0.1773814 h -2.030366 z"
     id="path2"
     inkscape:connector-curvature="0"
     style="fill:#ffffff;stroke-width:0.83979255" />
  <path
     d="m 14.337912,13.986217 c -0.160568,0 -0.314587,0.06374 -0.428126,0.177364 -0.113623,0.11354 -0.177364,0.267559 -0.177448,0.428127 v 17.960307 c 8.4e-5,0.160652 0.06383,0.314669 0.177448,0.42821 0.113539,0.11354 0.267558,0.177364 0.428126,0.177364 h 6.842546 c 0.160653,0 0.31467,-0.06383 0.428209,-0.177364 0.113542,-0.113541 0.177366,-0.267558 0.177366,-0.42821 V 14.591708 c 0,-0.160568 -0.06383,-0.314587 -0.177366,-0.428127 -0.113539,-0.113624 -0.267556,-0.177364 -0.428209,-0.177364 z m 0.605575,1.211065 h 5.631397 v 16.749159 h -5.631397 z"
     id="path4"
     inkscape:connector-curvature="0"
     style="fill:#ffffff;stroke-width:0.83979255" />
  <path
     d="m 3.8979355,18.998518 c -0.1606002,0 -0.3146181,0.06383 -0.42818,0.177364 -0.1135613,0.113625 -0.1773665,0.267642 -0.1773826,0.428211 v 12.947838 c 1.61e-5,0.160652 0.063822,0.314669 0.1773826,0.428209 0.1135619,0.11354 0.2675798,0.177365 0.42818,0.177365 h 6.9229685 c 0.160602,0 0.314619,-0.06383 0.428184,-0.177365 0.113557,-0.11354 0.177365,-0.267557 0.177382,-0.428209 V 19.604093 c -1.7e-5,-0.160569 -0.06383,-0.314586 -0.177382,-0.428211 -0.113565,-0.113539 -0.267582,-0.177364 -0.428184,-0.177364 z m 0.605561,1.21115 H 10.215346 V 31.946355 H 4.5034965 Z"
     id="path6"
     inkscape:connector-curvature="0"
     style="fill:#ffffff;stroke-width:0.83979255" />
</svg>
