<?xml version="1.0" encoding="UTF-8" standalone="no"?>
<svg
   xmlns:dc="http://purl.org/dc/elements/1.1/"
   xmlns:cc="http://creativecommons.org/ns#"
   xmlns:rdf="http://www.w3.org/1999/02/22-rdf-syntax-ns#"
   xmlns:svg="http://www.w3.org/2000/svg"
   xmlns="http://www.w3.org/2000/svg"
   width="39"
   height="37"
   viewBox="0 0 39 37"
   fill="none"
   version="1.1"
   id="svg8">
  <metadata
     id="metadata14">
    <rdf:RDF>
      <cc:Work
         rdf:about="">
        <dc:format>image/svg+xml</dc:format>
        <dc:type
           rdf:resource="http://purl.org/dc/dcmitype/StillImage" />
        <dc:title></dc:title>
      </cc:Work>
    </rdf:RDF>
  </metadata>
  <defs
     id="defs12" />
  <path
     d="m 28.274707,4.1217604 c -0.07623,2.07e-4 -0.151664,0.01559 -0.22192,0.04525 -0.07017,0.029661 -0.13382,0.073008 -0.187188,0.1275123 l -6.534253,6.6861453 c -0.07909,0.08084 -0.132465,0.183191 -0.153574,0.294245 -0.02111,0.111056 -0.009,0.22587 0.03481,0.330075 0.0438,0.104197 0.11741,0.193147 0.211564,0.255701 0.09423,0.06255 0.204712,0.09595 0.317742,0.09598 h 2.714878 v 20.469824 c 0,0.152301 0.06054,0.298388 0.168232,0.406082 0.107694,0.107693 0.25378,0.168231 0.40616,0.168231 h 6.490204 c 0.152301,0 0.298387,-0.06054 0.406081,-0.168231 0.107693,-0.107694 0.16823,-0.253781 0.16823,-0.406082 V 11.956672 h 2.71488 c 0.113031,-3.2e-5 0.223591,-0.03343 0.317744,-0.09598 0.09415,-0.06255 0.167752,-0.151504 0.211562,-0.255701 0.04381,-0.104205 0.056,-0.21902 0.03482,-0.330075 -0.02111,-0.111055 -0.07448,-0.213403 -0.153494,-0.294245 L 28.686846,4.294523 C 28.633161,4.2396591 28.569037,4.1961038 28.498303,4.1664308 28.427489,4.1367586 28.351498,4.1215683 28.274712,4.12176 Z m 0.0015,1.3955684 5.170958,5.2905842 h -1.925816 c -0.15238,8e-6 -0.298468,0.06053 -0.406161,0.168247 -0.107695,0.107709 -0.168231,0.253797 -0.168231,0.406128 V 31.852106 H 25.605428 V 11.382288 c 0,-0.152331 -0.06046,-0.298419 -0.168231,-0.406128 -0.107692,-0.107718 -0.253779,-0.168239 -0.406081,-0.168247 h -1.925817 z"
     id="path2"
     style="fill:#1f567d;fill-opacity:1;stroke-width:0.7965492" />
  <path
     d="m 15.166772,14.816627 c -0.1523,0 -0.298387,0.06046 -0.406079,0.168231 -0.107773,0.107693 -0.168231,0.253781 -0.168311,0.406081 v 17.035479 c 8e-5,0.152379 0.06054,0.298466 0.168311,0.40616 0.107692,0.107693 0.25378,0.168231 0.406079,0.168231 h 6.490204 c 0.15238,0 0.298466,-0.06054 0.406159,-0.168231 0.107695,-0.107694 0.168233,-0.253781 0.168233,-0.40616 V 15.390939 c 0,-0.1523 -0.06054,-0.298388 -0.168233,-0.406081 -0.107693,-0.107774 -0.253779,-0.168231 -0.406159,-0.168231 z m 0.574392,1.148703 h 5.34142 v 15.886697 h -5.341419 z"
     id="path4"
     style="fill:#1f567d;fill-opacity:1;stroke-width:0.7965492" />
  <path
     d="m 5.2643804,19.57083 c -0.1523304,0 -0.2984175,0.06054 -0.4061317,0.168231 C 4.750535,19.846835 4.6900153,19.992921 4.69,20.145222 v 12.281116 c 1.53e-5,0.15238 0.060536,0.298466 0.1682487,0.406159 0.1077142,0.107694 0.2538013,0.168232 0.4061317,0.168232 h 6.5664846 c 0.152332,0 0.298418,-0.06054 0.406136,-0.168232 0.107709,-0.107693 0.168232,-0.253779 0.168248,-0.406159 V 20.145222 c -1.6e-5,-0.152301 -0.06054,-0.298387 -0.168248,-0.406161 -0.107718,-0.107693 -0.253804,-0.168231 -0.406136,-0.168231 z m 0.5743789,1.148784 H 11.25649 V 31.851945 H 5.8387593 Z"
     id="path6"
     style="fill:#1f567d;fill-opacity:1;stroke-width:0.7965492" />
</svg>
