<svg width="49" height="48" viewBox="0 0 49 48" fill="none" xmlns="http://www.w3.org/2000/svg">
<path d="M24.4747 6.22078C16.8537 6.18382 12.31 9.37905 9.73358 12.9108C7.15714 16.4425 6.47311 20.295 6.23946 21.592C6.20558 21.7801 6.24936 21.9737 6.36117 22.1302C6.47299 22.2867 6.64368 22.3932 6.83569 22.4264C7.02771 22.4596 7.22532 22.4167 7.38505 22.3072C7.54479 22.1976 7.65356 22.0304 7.68745 21.8423C7.92096 20.5461 8.5763 16.9742 10.9299 13.748C13.2834 10.5217 17.2608 7.62583 24.468 7.66078C31.6772 7.69574 35.6648 10.6059 38.0311 13.823C40.3973 17.04 41.0679 20.5653 41.3319 21.8583C41.349 21.9527 41.3851 22.0428 41.4382 22.1234C41.4913 22.2039 41.5603 22.2733 41.6412 22.3273C41.722 22.3814 41.8131 22.4191 41.909 22.4382C42.0049 22.4574 42.1038 22.4575 42.1997 22.4388C42.2957 22.42 42.3869 22.3826 42.468 22.3288C42.549 22.275 42.6183 22.2059 42.6717 22.1256C42.7251 22.0452 42.7616 21.9552 42.779 21.8609C42.7964 21.7665 42.7944 21.6697 42.7732 21.5761C42.5181 20.3267 41.8109 16.4997 39.2235 12.982C36.6361 9.46434 32.0938 6.25772 24.4747 6.22078Z" fill="white"/>
<path d="M6.96956 25.6607C6.86067 25.6595 6.75287 25.6821 6.65396 25.7267C6.55504 25.7713 6.46748 25.8369 6.39761 25.9187C6.32773 26.0005 6.27728 26.0965 6.24991 26.1998C6.22254 26.303 6.21894 26.4109 6.23935 26.5157C6.473 27.8127 7.15703 31.6652 9.73347 35.197C12.3099 38.7287 16.8536 41.9239 24.4746 41.887C32.0937 41.85 36.636 38.6434 39.2234 35.1257C41.8108 31.608 42.518 27.7811 42.7731 26.5317C42.7943 26.4381 42.7963 26.3412 42.7789 26.2469C42.7615 26.1525 42.725 26.0625 42.6716 25.9822C42.6182 25.9018 42.5489 25.8327 42.4679 25.779C42.3868 25.7252 42.2956 25.6878 42.1996 25.669C42.1037 25.6502 42.0048 25.6504 41.9089 25.6695C41.813 25.6886 41.7219 25.7264 41.6411 25.7804C41.5602 25.8345 41.4912 25.9038 41.4381 25.9844C41.385 26.0649 41.3489 26.1551 41.3318 26.2495C41.0678 27.5424 40.3972 31.0668 38.031 34.2838C35.6647 37.5009 31.6771 40.412 24.4679 40.447C17.2607 40.4819 13.2833 37.586 10.9298 34.3598C8.57618 31.1335 7.92085 27.5616 7.68734 26.2654C7.65959 26.0979 7.57237 25.9454 7.44105 25.8348C7.30973 25.7242 7.14275 25.6625 6.96956 25.6607V25.6607Z" fill="white"/>
<path d="M4.40367 19.4605C4.25396 19.5815 4.15967 19.7561 4.14152 19.9458C4.12337 20.1355 4.18284 20.3248 4.30687 20.4722L6.2875 22.8958C6.34736 22.9712 6.42186 23.0342 6.50668 23.0813C6.5915 23.1283 6.68494 23.1585 6.78157 23.1699C6.8782 23.1813 6.97609 23.1738 7.06956 23.1478C7.16304 23.1218 7.25022 23.0778 7.32604 23.0184C7.40187 22.959 7.46483 22.8854 7.51126 22.8019C7.55769 22.7183 7.58667 22.6265 7.59651 22.5317C7.60635 22.4369 7.59686 22.3411 7.56859 22.2497C7.54032 22.1584 7.49383 22.0734 7.43182 21.9997L5.45119 19.5761C5.39075 19.5 5.31536 19.4364 5.22951 19.3892C5.14366 19.342 5.04909 19.3121 4.9514 19.3013C4.85372 19.2905 4.7549 19.299 4.66082 19.3264C4.56673 19.3537 4.47929 19.3993 4.40367 19.4605V19.4605Z" fill="white"/>
<path d="M6.39828 21.8813C6.32143 21.9397 6.25728 22.0126 6.20953 22.0957C6.16179 22.1788 6.13142 22.2705 6.12018 22.3654C6.10894 22.4602 6.11706 22.5564 6.14407 22.6484C6.17108 22.7403 6.21643 22.8262 6.2775 22.9009C6.33857 22.9757 6.41413 23.0378 6.4998 23.0838C6.58546 23.1298 6.67952 23.1587 6.77651 23.1688C6.8735 23.1789 6.97148 23.17 7.06477 23.1426C7.15805 23.1152 7.24477 23.0699 7.31989 23.0094L9.78978 21.0745C9.86663 21.0161 9.93079 20.9432 9.97853 20.8601C10.0263 20.777 10.0566 20.6853 10.0679 20.5904C10.0791 20.4956 10.071 20.3994 10.044 20.3074C10.017 20.2155 9.97163 20.1296 9.91056 20.0549C9.84949 19.9801 9.77393 19.918 9.68826 19.872C9.6026 19.826 9.50854 19.7971 9.41155 19.787C9.31456 19.7769 9.21658 19.7858 9.1233 19.8132C9.03001 19.8406 8.94329 19.8859 8.86817 19.9464L6.39828 21.8813Z" fill="white"/>
<path d="M25.4857 11.8153C25.3658 11.8218 25.2494 11.857 25.1466 11.9178C25.0439 11.9786 24.9579 12.0632 24.8961 12.164L15.8665 26.9053C15.7945 27.023 15.7583 27.1584 15.7623 27.2956C15.7662 27.4328 15.81 27.5661 15.8887 27.6796C15.9673 27.7932 16.0775 27.8824 16.2061 27.9368C16.3348 27.9911 16.4766 28.0082 16.6149 27.9862L22.7974 27.0028L21.2087 34.7193C21.1751 34.883 21.2006 35.053 21.2809 35.2002C21.3611 35.3474 21.491 35.4628 21.6485 35.5266C21.8059 35.5904 21.9811 35.5986 22.1441 35.5498C22.307 35.5011 22.4476 35.3984 22.5418 35.2593L31.7179 21.705C31.7968 21.5884 31.8393 21.4519 31.8403 21.312C31.8413 21.1722 31.8007 21.0351 31.7235 20.9174C31.6462 20.7998 31.5357 20.7068 31.4054 20.6497C31.275 20.5926 31.1305 20.5739 30.9896 20.5959L24.632 21.5868L26.2494 12.66C26.2687 12.5531 26.2631 12.4434 26.2331 12.339C26.2031 12.2345 26.1493 12.1381 26.0759 12.0569C26.0024 11.9756 25.9112 11.9117 25.809 11.8699C25.7068 11.828 25.5963 11.8094 25.4857 11.8153V11.8153ZM24.1056 16.2525L23.0041 22.3322C22.9837 22.4451 22.9912 22.5613 23.026 22.6708C23.0607 22.7804 23.1217 22.8803 23.2038 22.9621C23.2859 23.0439 23.3868 23.1053 23.4981 23.1412C23.6093 23.1771 23.7277 23.1864 23.8434 23.1684L29.5674 22.2759L23.3917 31.3987L24.4482 26.2668C24.4716 26.1528 24.4663 26.0349 24.433 25.9232C24.3996 25.8116 24.3392 25.7095 24.2568 25.6258C24.1744 25.542 24.0725 25.4791 23.9598 25.4423C23.8472 25.4055 23.7271 25.396 23.6099 25.4147L17.9414 26.3165L24.1056 16.2525Z" fill="white"/>
<path d="M44.4804 28.7567C44.6301 28.6356 44.7244 28.4611 44.7425 28.2714C44.7607 28.0817 44.7012 27.8923 44.5772 27.7449L42.5965 25.3214C42.5367 25.246 42.4622 25.1829 42.3774 25.1359C42.2925 25.0888 42.1991 25.0587 42.1025 25.0473C42.0058 25.0359 41.9079 25.0434 41.8145 25.0694C41.721 25.0954 41.6338 25.1394 41.558 25.1987C41.4822 25.2581 41.4192 25.3317 41.3728 25.4153C41.3263 25.4988 41.2974 25.5907 41.2875 25.6855C41.2777 25.7803 41.2872 25.8761 41.3154 25.9674C41.3437 26.0588 41.3902 26.1438 41.4522 26.2175L43.4328 28.641C43.4933 28.7172 43.5687 28.7808 43.6545 28.828C43.7404 28.8752 43.8349 28.9051 43.9326 28.9159C44.0303 28.9266 44.1291 28.9181 44.2232 28.8908C44.3173 28.8634 44.4047 28.8178 44.4804 28.7567V28.7567Z" fill="white"/>
<path d="M42.4857 26.3359C42.5626 26.2774 42.6268 26.2045 42.6745 26.1214C42.7222 26.0383 42.7526 25.9467 42.7639 25.8518C42.7751 25.7569 42.767 25.6607 42.74 25.5688C42.713 25.4768 42.6676 25.391 42.6065 25.3163C42.5455 25.2415 42.4699 25.1793 42.3842 25.1333C42.2986 25.0874 42.2045 25.0585 42.1075 25.0484C42.0105 25.0383 41.9125 25.0472 41.8193 25.0746C41.726 25.1019 41.6393 25.1472 41.5641 25.2078L39.0943 27.1426C39.0174 27.2011 38.9532 27.274 38.9055 27.3571C38.8578 27.4402 38.8274 27.5319 38.8161 27.6267C38.8049 27.7216 38.813 27.8178 38.84 27.9097C38.867 28.0017 38.9124 28.0875 38.9735 28.1623C39.0345 28.237 39.1101 28.2992 39.1958 28.3452C39.2814 28.3912 39.3755 28.42 39.4725 28.4301C39.5695 28.4402 39.6675 28.4313 39.7607 28.404C39.854 28.3766 39.9407 28.3313 40.0159 28.2707L42.4857 26.3359Z" fill="white"/>
</svg>
