<?xml version="1.0" encoding="UTF-8" standalone="no"?>
<svg
   xmlns:dc="http://purl.org/dc/elements/1.1/"
   xmlns:cc="http://creativecommons.org/ns#"
   xmlns:rdf="http://www.w3.org/1999/02/22-rdf-syntax-ns#"
   xmlns:svg="http://www.w3.org/2000/svg"
   xmlns="http://www.w3.org/2000/svg"
   width="49"
   height="48"
   viewBox="0 0 49 48"
   fill="none"
   version="1.1"
   id="svg20">
  <metadata
     id="metadata26">
    <rdf:RDF>
      <cc:Work
         rdf:about="">
        <dc:format>image/svg+xml</dc:format>
        <dc:type
           rdf:resource="http://purl.org/dc/dcmitype/StillImage" />
        <dc:title></dc:title>
      </cc:Work>
    </rdf:RDF>
  </metadata>
  <defs
     id="defs24" />
  <path
     style="fill:#ffffff;fill-opacity:1"
     d="m 25.19985,5.93256 c -2.4805,0 -4.5067,1.98485 -4.5067,4.41464 0,2.4299 2.0262,4.4157 4.5067,4.4157 2.4804,0 4.5076,-1.9858 4.5076,-4.4157 0,-2.42979 -2.0272,-4.41464 -4.5076,-4.41464 z m 0,1.44 c 1.686,0 3.0376,1.32308 3.0376,2.97464 0,1.6516 -1.3516,2.9757 -3.0376,2.9757 -1.686,0 -3.0367,-1.3241 -3.0367,-2.9757 0,-1.65156 1.3507,-2.97464 3.0367,-2.97464 z"
     id="path2" />
  <path
     style="fill:#ffffff;fill-opacity:1"
     d="m 10.75865,19.5494 c -2.48045,0 -4.50665,1.9849 -4.50665,4.4147 0,2.4299 2.0262,4.4157 4.50665,4.4157 2.4805,0 4.5076,-1.9858 4.5076,-4.4157 0,-2.4298 -2.0271,-4.4147 -4.5076,-4.4147 z m 0,1.44 c 1.686,0 3.0376,1.3231 3.0376,2.9747 0,1.6516 -1.3516,2.9757 -3.0376,2.9757 -1.686,0 -3.03665,-1.3241 -3.03665,-2.9757 0,-1.6516 1.35065,-2.9747 3.03665,-2.9747 z"
     id="path4" />
  <path
     style="fill:#ffffff;fill-opacity:1"
     d="m 39.57065,19.5492 c -2.4804,0 -4.5066,1.9848 -4.5066,4.4147 0,2.4298 2.0262,4.4156 4.5066,4.4156 2.4805,0 4.5076,-1.9858 4.5076,-4.4156 0,-2.4299 -2.0271,-4.4147 -4.5076,-4.4147 z m 0,1.44 c 1.686,0 3.0376,1.3231 3.0376,2.9747 0,1.6516 -1.3516,2.9756 -3.0376,2.9756 -1.686,0 -3.0366,-1.324 -3.0366,-2.9756 0,-1.6516 1.3506,-2.9747 3.0366,-2.9747 z"
     id="path6" />
  <path
     style="fill:#ffffff;fill-opacity:1"
     d="m 10.75865,33.1663 c -2.48045,0 -4.50665,1.9849 -4.50665,4.4147 0,2.4298 2.0262,4.4156 4.50665,4.4156 2.4805,0 4.5076,-1.9858 4.5076,-4.4156 0,-2.4298 -2.0271,-4.4147 -4.5076,-4.4147 z m 0,1.44 c 1.686,0 3.0376,1.3231 3.0376,2.9747 0,1.6516 -1.3516,2.9756 -3.0376,2.9756 -1.686,0 -3.03665,-1.324 -3.03665,-2.9756 0,-1.6516 1.35065,-2.9747 3.03665,-2.9747 z"
     id="path8" />
  <path
     style="fill:#ffffff;fill-opacity:1"
     d="m 25.21345,33.1663 c -2.4804,0 -4.5066,1.9849 -4.5066,4.4147 0,2.4298 2.0262,4.4156 4.5066,4.4156 2.4805,0 4.5077,-1.9858 4.5077,-4.4156 0,-2.4298 -2.0272,-4.4147 -4.5077,-4.4147 z m 0,1.44 c 1.686,0 3.0377,1.3231 3.0377,2.9747 0,1.6516 -1.3517,2.9756 -3.0377,2.9756 -1.686,0 -3.0366,-1.324 -3.0366,-2.9756 0,-1.6516 1.3506,-2.9747 3.0366,-2.9747 z"
     id="path10" />
  <path
     style="fill:#ffffff;fill-opacity:1"
     d="m 21.69645,12.2609 -8.8219,8.5743 1.0355,1.0228 8.8219,-8.5753 z"
     id="path12" />
  <path
     style="fill:#ffffff;fill-opacity:1"
     d="m 10.08085,27.8646 v 5.8472 h 1.47 v -5.8472 z"
     id="path14" />
  <path
     style="fill:#ffffff;fill-opacity:1"
     d="m 14.22105,25.7862 -1.0355,1.0228 8.822,8.5744 1.0355,-1.0228 z"
     id="path16" />
  <path
     style="fill:#ffffff;fill-opacity:1"
     d="m 28.65125,12.108 -1.0355,1.0228 8.8219,8.5744 1.0355,-1.0228 z"
     id="path18" />
</svg>
