<?xml version="1.0" encoding="UTF-8" standalone="no"?>
<svg
   xmlns:dc="http://purl.org/dc/elements/1.1/"
   xmlns:cc="http://creativecommons.org/ns#"
   xmlns:rdf="http://www.w3.org/1999/02/22-rdf-syntax-ns#"
   xmlns:svg="http://www.w3.org/2000/svg"
   xmlns="http://www.w3.org/2000/svg"
   width="49"
   height="48"
   viewBox="0 0 49 48"
   fill="none"
   version="1.1"
   id="svg20">
  <metadata
     id="metadata26">
    <rdf:RDF>
      <cc:Work
         rdf:about="">
        <dc:format>image/svg+xml</dc:format>
        <dc:type
           rdf:resource="http://purl.org/dc/dcmitype/StillImage" />
        <dc:title></dc:title>
      </cc:Work>
    </rdf:RDF>
  </metadata>
  <defs
     id="defs24" />
  <path
     style="fill:#ffffff;fill-opacity:1"
     d="M24.5001 5.93256C22.0196 5.93256 19.9934 7.91741 19.9934 10.3472C19.9934 12.7771 22.0196 14.7629 24.5001 14.7629C26.9805 14.7629 29.0077 12.7771 29.0077 10.3472C29.0077 7.91741 26.9805 5.93256 24.5001 5.93256ZM24.5001 7.37256C26.1861 7.37256 27.5377 8.69564 27.5377 10.3472C27.5377 11.9988 26.1861 13.3229 24.5001 13.3229C22.8141 13.3229 21.4634 11.9988 21.4634 10.3472C21.4634 8.69564 22.8141 7.37256 24.5001 7.37256V7.37256Z"
     fill="#1F567D"
     id="path2" />
  <path
     style="fill:#ffffff;fill-opacity:1"
     d="M10.0589 19.5494C7.57845 19.5494 5.55225 21.5343 5.55225 23.9641C5.55225 26.394 7.57845 28.3798 10.0589 28.3798C12.5394 28.3798 14.5665 26.394 14.5665 23.9641C14.5665 21.5343 12.5394 19.5494 10.0589 19.5494ZM10.0589 20.9894C11.7449 20.9894 13.0965 22.3125 13.0965 23.9641C13.0965 25.6157 11.7449 26.9398 10.0589 26.9398C8.3729 26.9398 7.02225 25.6157 7.02225 23.9641C7.02225 22.3125 8.3729 20.9894 10.0589 20.9894V20.9894Z"
     fill="#1F567D"
     id="path4" />
  <path
     style="fill:#ffffff;fill-opacity:1"
     d="M38.8709 19.5492C36.3905 19.5492 34.3643 21.534 34.3643 23.9639C34.3643 26.3937 36.3905 28.3795 38.8709 28.3795C41.3514 28.3795 43.3785 26.3937 43.3785 23.9639C43.3785 21.534 41.3514 19.5492 38.8709 19.5492ZM38.8709 20.9892C40.5569 20.9892 41.9085 22.3123 41.9085 23.9639C41.9085 25.6155 40.5569 26.9395 38.8709 26.9395C37.1849 26.9395 35.8343 25.6155 35.8343 23.9639C35.8343 22.3123 37.1849 20.9892 38.8709 20.9892V20.9892Z"
     fill="#1F567D"
     id="path6" />
  <path
     style="fill:#ffffff;fill-opacity:1"
     d="M10.0589 33.1663C7.57845 33.1663 5.55225 35.1512 5.55225 37.581C5.55225 40.0108 7.57845 41.9966 10.0589 41.9966C12.5394 41.9966 14.5665 40.0108 14.5665 37.581C14.5665 35.1512 12.5394 33.1663 10.0589 33.1663ZM10.0589 34.6063C11.7449 34.6063 13.0965 35.9294 13.0965 37.581C13.0965 39.2326 11.7449 40.5566 10.0589 40.5566C8.3729 40.5566 7.02225 39.2326 7.02225 37.581C7.02225 35.9294 8.3729 34.6063 10.0589 34.6063V34.6063Z"
     fill="#1F567D"
     id="path8" />
  <path
     style="fill:#ffffff;fill-opacity:1"
     d="M24.5137 33.1663C22.0333 33.1663 20.0071 35.1512 20.0071 37.581C20.0071 40.0108 22.0333 41.9966 24.5137 41.9966C26.9942 41.9966 29.0214 40.0108 29.0214 37.581C29.0214 35.1512 26.9942 33.1663 24.5137 33.1663ZM24.5137 34.6063C26.1997 34.6063 27.5514 35.9294 27.5514 37.581C27.5514 39.2326 26.1997 40.5566 24.5137 40.5566C22.8277 40.5566 21.4771 39.2326 21.4771 37.581C21.4771 35.9294 22.8277 34.6063 24.5137 34.6063V34.6063Z"
     fill="#1F567D"
     id="path10" />
  <path
     style="fill:#ffffff;fill-opacity:1"
     d="M20.9967 12.2609L12.1748 20.8352L13.2103 21.858L22.0322 13.2827L20.9967 12.2609Z"
     fill="#1F567D"
     id="path12" />
  <path
     style="fill:#ffffff;fill-opacity:1"
     d="M9.3811 27.8646V33.7118H10.8511V27.8646H9.3811Z"
     fill="#1F567D"
     id="path14" />
  <path
     style="fill:#ffffff;fill-opacity:1"
     d="M13.5213 25.7862L12.4858 26.809L21.3078 35.3834L22.3433 34.3606L13.5213 25.7862Z"
     fill="#1F567D"
     id="path16" />
  <path
     style="fill:#ffffff;fill-opacity:1"
     d="M27.9515 12.108L26.916 13.1308L35.7379 21.7052L36.7734 20.6824L27.9515 12.108Z"
     fill="#1F567D"
     id="path18" />
</svg>
