<svg width="49" height="48" viewBox="0 0 49 48" fill="none" xmlns="http://www.w3.org/2000/svg">
<path d="M10.388 6.16626C7.90755 6.16626 5.88135 8.15112 5.88135 10.5809C5.88135 13.0108 7.90755 14.9966 10.388 14.9966C12.8685 14.9966 14.8956 13.0108 14.8956 10.5809C14.8956 8.15112 12.8685 6.16626 10.388 6.16626ZM10.388 7.60626C12.074 7.60626 13.4256 8.92935 13.4256 10.5809C13.4256 12.2325 12.074 13.5566 10.388 13.5566C8.702 13.5566 7.35135 12.2325 7.35135 10.5809C7.35135 8.92935 8.702 7.60626 10.388 7.60626Z" fill="white"/>
<path d="M24.5003 6.16626C22.0198 6.16626 19.9927 8.15112 19.9927 10.5809C19.9927 13.0108 22.0198 14.9966 24.5003 14.9966C26.9807 14.9966 29.007 13.0108 29.007 10.5809C29.007 8.15112 26.9807 6.16626 24.5003 6.16626ZM24.5003 7.60626C26.1863 7.60626 27.537 8.92935 27.537 10.5809C27.537 12.2325 26.1863 13.5566 24.5003 13.5566C22.8143 13.5566 21.4627 12.2325 21.4627 10.5809C21.4627 8.92935 22.8143 7.60626 24.5003 7.60626Z" fill="white"/>
<path d="M38.6119 6.16626C36.1314 6.16626 34.1052 8.15112 34.1052 10.5809C34.1052 13.0108 36.1314 14.9966 38.6119 14.9966C41.0923 14.9966 43.1195 13.0108 43.1195 10.5809C43.1195 8.15112 41.0923 6.16626 38.6119 6.16626ZM38.6119 7.60626C40.2979 7.60626 41.6495 8.92935 41.6495 10.5809C41.6495 12.2325 40.2979 13.5566 38.6119 13.5566C36.9259 13.5566 35.5752 12.2325 35.5752 10.5809C35.5752 8.92935 36.9259 7.60626 38.6119 7.60626Z" fill="white"/>
<path d="M10.388 19.5341C7.90755 19.5341 5.88135 21.5189 5.88135 23.9487C5.88135 26.3786 7.90755 28.3644 10.388 28.3644C12.8685 28.3644 14.8956 26.3786 14.8956 23.9487C14.8956 21.5189 12.8685 19.5341 10.388 19.5341ZM10.388 20.9741C12.074 20.9741 13.4256 22.2971 13.4256 23.9487C13.4256 25.6003 12.074 26.9244 10.388 26.9244C8.702 26.9244 7.35135 25.6003 7.35135 23.9487C7.35135 22.2971 8.702 20.9741 10.388 20.9741Z" fill="white"/>
<path d="M24.5003 19.5341C22.0198 19.5341 19.9927 21.5189 19.9927 23.9487C19.9927 26.3786 22.0198 28.3644 24.5003 28.3644C26.9807 28.3644 29.007 26.3786 29.007 23.9487C29.007 21.5189 26.9807 19.5341 24.5003 19.5341ZM24.5003 20.9741C26.1863 20.9741 27.537 22.2971 27.537 23.9487C27.537 25.6003 26.1863 26.9244 24.5003 26.9244C22.8143 26.9244 21.4627 25.6003 21.4627 23.9487C21.4627 22.2971 22.8143 20.9741 24.5003 20.9741Z" fill="white"/>
<path d="M38.6119 19.5341C36.1314 19.5341 34.1052 21.5189 34.1052 23.9487C34.1052 26.3786 36.1314 28.3644 38.6119 28.3644C41.0923 28.3644 43.1195 26.3786 43.1195 23.9487C43.1195 21.5189 41.0923 19.5341 38.6119 19.5341ZM38.6119 20.9741C40.2979 20.9741 41.6495 22.2971 41.6495 23.9487C41.6495 25.6003 40.2979 26.9244 38.6119 26.9244C36.9259 26.9244 35.5752 25.6003 35.5752 23.9487C35.5752 22.2971 36.9259 20.9741 38.6119 20.9741Z" fill="white"/>
<path d="M10.388 32.9019C7.90755 32.9019 5.88135 34.8876 5.88135 37.3175C5.88135 39.7473 7.90755 41.7322 10.388 41.7322C12.8685 41.7322 14.8956 39.7473 14.8956 37.3175C14.8956 34.8876 12.8685 32.9019 10.388 32.9019ZM10.388 34.3419C12.074 34.3419 13.4256 35.6659 13.4256 37.3175C13.4256 38.9691 12.074 40.2922 10.388 40.2922C8.702 40.2922 7.35135 38.9691 7.35135 37.3175C7.35135 35.6659 8.702 34.3419 10.388 34.3419Z" fill="white"/>
<path d="M24.5003 32.9019C22.0198 32.9019 19.9927 34.8876 19.9927 37.3175C19.9927 39.7473 22.0198 41.7322 24.5003 41.7322C26.9807 41.7322 29.007 39.7473 29.007 37.3175C29.007 34.8876 26.9807 32.9019 24.5003 32.9019ZM24.5003 34.3419C26.1863 34.3419 27.537 35.6659 27.537 37.3175C27.537 38.9691 26.1863 40.2922 24.5003 40.2922C22.8143 40.2922 21.4627 38.9691 21.4627 37.3175C21.4627 35.6659 22.8143 34.3419 24.5003 34.3419Z" fill="white"/>
<path d="M38.6119 32.9019C36.1314 32.9019 34.1052 34.8876 34.1052 37.3175C34.1052 39.7473 36.1314 41.7322 38.6119 41.7322C41.0923 41.7322 43.1195 39.7473 43.1195 37.3175C43.1195 34.8876 41.0923 32.9019 38.6119 32.9019ZM38.6119 34.3419C40.2979 34.3419 41.6495 35.6659 41.6495 37.3175C41.6495 38.9691 40.2979 40.2922 38.6119 40.2922C36.9259 40.2922 35.5752 38.9691 35.5752 37.3175C35.5752 35.6659 36.9259 34.3419 38.6119 34.3419Z" fill="white"/>
</svg>
